<?xml version="1.0" standalone="no"?>
<!DOCTYPE svg PUBLIC "-//W3C//DTD SVG 20010904//EN"
 "http://www.w3.org/TR/2001/REC-SVG-20010904/DTD/svg10.dtd">
<svg version="1.0" xmlns="http://www.w3.org/2000/svg"
 width="402.000000pt" height="402.000000pt" viewBox="0 0 402.000000 402.000000"
 preserveAspectRatio="xMidYMid meet">

<g transform="translate(0.000000,402.000000) scale(0.100000,-0.100000)"
fill="#000000" stroke="none">
<path d="M3011 3970 c-65 -14 -163 -63 -209 -104 -26 -24 -54 -39 -79 -42
-268 -38 -590 -295 -729 -581 l-38 -80 -53 57 c-76 83 -131 105 -258 105 -96
-1 -124 -6 -236 -50 -13 -5 -17 4 -22 48 -18 174 -176 270 -420 254 -70 -5
-132 -18 -262 -58 -140 -42 -188 -52 -270 -56 -103 -6 -125 -13 -125 -43 0
-28 64 -159 120 -245 98 -150 208 -245 323 -281 51 -16 69 -16 170 -6 125 13
178 27 262 68 74 36 136 91 165 147 19 36 36 51 84 75 78 38 158 62 211 62
106 0 207 -71 239 -168 17 -49 17 -58 1 -160 -33 -206 -18 -509 26 -553 24
-24 41 -24 62 -1 16 17 16 26 1 123 -30 194 -7 432 57 609 93 254 323 499 561
598 41 17 93 34 115 38 l40 6 6 -78 c17 -209 104 -377 229 -440 62 -32 158
-54 233 -54 192 0 486 72 523 128 21 32 19 115 -3 185 -62 192 -201 362 -355
435 -47 22 -105 44 -130 50 -68 16 -190 22 -239 12z m213 -105 c135 -32 254
-119 336 -246 45 -70 88 -175 97 -234 l6 -44 -86 -26 c-198 -60 -406 -74 -513
-34 -123 46 -197 177 -219 387 -8 69 -2 74 64 51 30 -11 31 -13 31 -71 0 -70
16 -131 40 -153 14 -13 19 -13 35 -1 17 12 17 15 2 55 -18 45 -23 131 -7 131
5 0 48 -18 96 -40 72 -33 85 -43 79 -57 -16 -40 -16 -52 3 -89 29 -56 57 -80
77 -64 20 17 19 37 -5 67 -46 59 -8 72 52 18 32 -29 42 -34 58 -25 11 6 20 16
20 23 0 19 -56 69 -129 116 -63 40 -63 41 -37 51 35 13 117 13 153 -1 23 -8
30 -7 40 7 19 26 16 32 -17 49 -56 29 -109 29 -195 0 -44 -14 -89 -24 -100
-22 -11 3 -69 23 -129 45 l-110 39 45 28 c24 16 62 34 84 41 54 17 157 16 229
-1z m-2066 -400 c77 -23 142 -105 142 -178 0 -18 -36 -38 -92 -52 -22 -6 -26
-3 -31 24 -4 17 -16 45 -29 61 -35 47 -158 82 -195 55 -26 -20 -6 -49 38 -53
59 -4 80 -12 105 -39 38 -41 32 -61 -23 -69 -57 -8 -256 10 -333 31 -30 8 -65
15 -76 15 -26 0 -39 -27 -23 -46 12 -15 108 -38 232 -55 60 -8 87 -16 87 -25
0 -17 -66 -51 -117 -62 -31 -6 -39 -12 -41 -35 -3 -23 0 -27 21 -27 77 0 190
64 203 115 5 20 14 23 73 29 36 4 92 13 124 20 31 7 57 11 57 9 0 -2 -6 -16
-14 -31 -20 -38 -74 -86 -124 -112 -109 -54 -310 -78 -388 -45 -94 39 -187
136 -274 283 -47 80 -45 92 16 92 36 0 157 30 269 67 44 15 105 32 135 39 64
15 188 9 258 -11z"/>
<path d="M2424 3134 c-23 -47 -26 -63 -21 -114 7 -86 43 -155 118 -228 61 -60
197 -162 216 -162 5 0 46 33 92 74 l84 75 41 -29 c88 -60 227 -196 285 -278
l24 -34 -81 -81 -80 -82 44 -80 c49 -89 87 -182 112 -277 l17 -63 117 -3 116
-3 6 -37 c14 -98 16 -196 7 -294 -17 -173 -3 -158 -140 -158 l-117 0 -12 -46
c-23 -87 -73 -202 -122 -285 -28 -45 -50 -85 -50 -88 0 -3 35 -40 77 -83 l76
-77 -28 -41 c-39 -56 -214 -223 -281 -267 l-55 -36 -52 49 c-29 27 -66 62 -82
76 l-31 27 -84 -43 c-81 -42 -216 -93 -307 -116 l-41 -10 -7 -114 -7 -115 -77
-8 c-98 -10 -255 -10 -353 0 l-78 9 0 112 0 112 -112 34 c-62 19 -160 58 -217
87 l-105 52 -74 -67 c-40 -37 -79 -71 -86 -76 -26 -18 -257 187 -331 294 l-28
41 80 82 80 82 -35 60 c-45 78 -97 203 -119 288 l-17 67 -117 0 -117 0 -6 48
c-15 130 -17 187 -7 294 6 64 14 124 17 132 5 12 29 16 121 18 l115 3 30 89
c28 88 86 211 135 289 l25 40 -78 78 c-74 74 -77 80 -65 102 33 62 205 227
318 305 l31 22 84 -78 83 -79 80 44 c136 75 169 121 180 253 9 100 -5 154 -48
180 -48 30 -64 26 -76 -17 -14 -50 -14 -51 10 -58 20 -7 21 -12 17 -89 -3 -64
-9 -90 -26 -113 -19 -27 -96 -73 -122 -73 -6 0 -46 34 -89 76 -93 88 -74 90
-221 -20 -110 -82 -222 -193 -305 -301 l-58 -76 82 -83 82 -83 -38 -69 c-21
-38 -52 -107 -70 -154 l-32 -85 -120 -3 -120 -3 -5 -27 c-44 -209 -47 -447
-10 -624 l6 -28 118 0 117 0 33 -92 c17 -51 47 -121 65 -158 l33 -65 -84 -78
c-46 -43 -84 -82 -84 -86 0 -13 100 -143 163 -211 74 -79 159 -153 252 -219
l70 -49 88 81 88 80 87 -41 c48 -22 119 -51 158 -63 l71 -23 7 -65 c3 -37 6
-89 6 -118 0 -59 -14 -51 130 -73 95 -14 350 -12 459 5 51 7 95 16 97 18 3 3
8 55 12 117 l7 113 85 29 c46 15 119 44 162 64 l77 37 87 -80 87 -80 80 56
c157 110 294 244 396 388 l25 34 -82 82 -82 83 37 69 c21 39 52 108 69 155
l33 85 120 3 120 3 10 52 c22 107 31 195 31 312 0 106 -5 161 -25 282 l-6 32
-120 3 -120 3 -25 75 c-14 41 -42 110 -63 152 l-38 76 84 84 84 84 -62 85
c-78 106 -222 248 -334 328 -75 53 -89 60 -103 49 -10 -7 -48 -41 -86 -75 -38
-35 -74 -63 -80 -63 -24 0 -180 146 -203 189 -27 51 -31 135 -8 165 21 28 20
30 -24 59 l-40 26 -27 -55z"/>
<path d="M2229 2465 c-26 -8 -61 -28 -78 -44 l-31 -29 2 -754 3 -753 27 -50
c51 -97 125 -145 254 -165 131 -20 246 13 328 96 25 24 54 44 65 44 42 0 130
41 159 75 31 35 52 105 52 175 0 35 5 43 38 64 77 48 132 126 132 184 0 16 -7
50 -16 76 -15 45 -15 49 6 98 33 77 37 147 11 200 -11 23 -36 53 -54 65 l-34
21 5 79 c4 66 1 86 -16 120 -31 60 -83 98 -175 127 -15 5 -16 14 -11 58 4 43
1 61 -18 98 -29 57 -92 104 -166 126 -31 9 -68 23 -82 31 -98 57 -133 67 -245
70 -77 2 -124 -2 -156 -12z m277 -80 l37 -15 -37 -25 c-73 -50 -119 -122 -96
-150 21 -26 46 -17 85 30 50 61 74 76 135 80 97 7 190 -59 190 -133 0 -20 -4
-42 -8 -48 -4 -7 -37 -12 -77 -13 -146 -2 -255 -99 -272 -243 -5 -42 -3 -53
12 -64 29 -22 52 -1 65 60 14 67 55 127 106 152 30 15 59 19 124 18 193 -3
292 -92 245 -222 -29 -82 -27 -91 31 -113 61 -23 79 -55 72 -123 -7 -60 -41
-111 -95 -143 -43 -25 -69 -30 -180 -33 -18 0 -26 -39 -13 -55 19 -23 138 -20
201 5 57 23 69 18 69 -28 0 -58 -53 -121 -126 -151 -30 -12 -30 -13 -40 -111
-9 -83 -14 -104 -34 -125 -23 -25 -103 -55 -144 -55 -11 0 -41 -21 -66 -48
-59 -61 -108 -84 -196 -90 -182 -12 -293 79 -294 240 0 57 4 71 26 97 34 40
55 52 134 71 55 14 66 20 68 40 8 54 -65 56 -176 5 -30 -14 -56 -25 -58 -25
-2 0 -4 268 -4 595 l0 595 24 15 c55 36 217 42 292 10z"/>
<path d="M2750 1895 c-9 -11 -9 -22 0 -50 34 -102 -55 -190 -190 -189 -73 0
-171 38 -211 80 -25 26 -48 31 -67 12 -34 -34 15 -86 134 -140 64 -29 73 -36
79 -64 5 -29 62 -93 83 -94 4 -1 27 -5 52 -10 47 -9 135 4 146 21 3 6 3 21 0
35 -7 25 -8 25 -71 19 -43 -5 -75 -3 -94 5 -48 19 -52 60 -7 60 72 0 186 73
212 137 19 43 18 127 -1 163 -17 32 -45 39 -65 15z"/>
<path d="M2430 1401 c-31 -5 -35 -10 -35 -36 0 -30 0 -30 70 -36 132 -12 204
-68 208 -160 2 -39 1 -41 -46 -57 -67 -24 -115 -66 -143 -126 -29 -62 -32
-131 -6 -145 29 -15 50 5 58 54 12 83 60 131 157 157 38 10 52 10 67 0 31 -19
59 -14 71 12 16 34 -3 64 -46 72 -32 6 -35 9 -35 43 0 55 -41 132 -86 163 -69
48 -165 72 -234 59z"/>
<path d="M1346 2385 c-291 -74 -417 -315 -340 -650 46 -200 179 -418 349 -571
190 -170 533 -400 587 -392 l23 3 3 668 2 668 -29 42 c-70 103 -171 180 -281
218 -84 28 -231 35 -314 14z m277 -85 c90 -28 180 -91 233 -163 l44 -59 0
-594 c0 -407 -3 -595 -11 -599 -21 -13 -313 186 -448 305 -139 123 -212 215
-281 353 -110 224 -131 420 -59 571 22 49 99 130 144 154 104 55 261 68 378
32z"/>
</g>
</svg>
